Coordinates
version=1
nRows=6
nColumns=63
inDegrees=yes

Units are S.I. units (second, meters, Newtons, ...)
If the header above contains a line with 'inDegrees', this indicates whether rotational values are in degrees (yes) or radians (no).

endheader
time	pelvis_tilt	pelvis_list	pelvis_rotation	pelvis_tx	pelvis_ty	pelvis_tz	hip_flexion_r	hip_adduction_r	hip_rotation_r	knee_angle_r	knee_angle_r_beta	ankle_angle_r	subtalar_angle_r	mtp_angle_r	hip_flexion_l	hip_adduction_l	hip_rotation_l	knee_angle_l	knee_angle_l_beta	ankle_angle_l	subtalar_angle_l	mtp_angle_l	L5_S1_Flex_Ext	L5_S1_Lat_Bending	L5_S1_axial_rotation	L4_L5_Flex_Ext	L4_L5_Lat_Bending	L4_L5_axial_rotation	L3_L4_Flex_Ext	L3_L4_Lat_Bending	L3_L4_axial_rotation	L2_L3_Flex_Ext	L2_L3_Lat_Bending	L2_L3_axial_rotation	L1_L2_Flex_Ext	L1_L2_Lat_Bending	L1_L2_axial_rotation	L1_T12_Flex_Ext	L1_T12_Lat_Bending	L1_T12_axial_rotation	Abs_r3	Abs_r2	Abs_r1	Abs_t1	Abs_t2	neck_flexion	neck_bending	neck_rotation	arm_flex_r	arm_add_r	arm_rot_r	elbow_flex_r	pro_sup_r	wrist_flex_r	wrist_dev_r	arm_flex_l	arm_add_l	arm_rot_l	elbow_flex_l	pro_sup_l	wrist_flex_l	wrist_dev_l
2.241379	1.393045	-2.992978	94.839904	0.135301	0.641120	0.818377	5.841592	-2.855670	-5.126677	6.482827	0.113147	21.893218	7.077545	0.000000	5.688935	3.460277	6.997497	3.621728	0.063211	16.372552	-13.260808	0.000000	0.149130	-0.038220	0.063410	0.276949	-0.050832	0.067374	0.245006	-0.092928	0.067374	0.170441	-0.092928	0.055484	0.138482	-0.077938	0.051521	0.085213	-0.059202	0.047558	1.065220	-0.432350	0.352670	0.000000	0.000000	14.268312	-0.813113	7.941482	23.952147	-16.092246	6.814492	81.923051	85.590464	-15.273129	11.719041	22.830454	-30.191521	-7.799354	85.094725	88.540777	-12.407007	12.820104
2.258621	1.672795	-2.892011	94.862077	0.135093	0.641292	0.817974	5.573834	-2.491507	-4.438298	6.059347	0.105756	21.714529	6.412368	0.000000	5.537235	3.141842	7.158844	3.577398	0.062437	16.445269	-13.169151	0.000000	0.147359	-0.012813	0.100659	0.273660	-0.017042	0.106950	0.242096	-0.031154	0.106950	0.168416	-0.031154	0.088077	0.136837	-0.026129	0.081786	0.084201	-0.019848	0.075494	1.052570	-0.144945	0.559836	0.000000	0.000000	14.060578	-0.641664	8.035463	23.445616	-17.227220	2.482169	82.120525	84.934483	-15.559021	12.421175	24.317290	-28.555294	-1.953036	87.243986	87.895757	-11.811173	12.806636
2.275862	1.954374	-2.804362	94.977671	0.134711	0.641434	0.817750	5.319605	-2.149508	-3.944873	5.656639	0.098727	21.545628	5.903901	0.000000	5.437139	2.840585	7.372940	3.567463	0.062264	16.532541	-13.061186	0.000000	0.145034	0.009986	0.121300	0.269343	0.013281	0.128881	0.238277	0.024280	0.128881	0.165760	0.024280	0.106138	0.134679	0.020363	0.098556	0.082873	0.015468	0.090975	1.035966	0.112963	0.674636	0.000000	0.000000	13.873301	-0.396875	8.085519	23.088663	-18.108800	-2.300426	82.178217	84.406597	-15.467956	13.301916	25.904654	-26.929646	4.151678	89.620439	87.008844	-11.131642	12.710885
2.293103	2.243872	-2.726675	95.188607	0.134125	0.641582	0.817706	5.086505	-1.825381	-3.638489	5.290911	0.092344	21.379920	5.539682	0.000000	5.385890	2.551297	7.617994	3.588645	0.062634	16.627061	-12.915400	0.000000	0.141845	0.034316	0.113881	0.263420	0.045641	0.120999	0.233037	0.083437	0.120999	0.162114	0.083437	0.099646	0.131717	0.069978	0.092529	0.081050	0.053156	0.085411	1.013183	0.388195	0.633375	0.000000	0.000000	13.675018	-0.144450	8.300485	22.951355	-18.709167	-7.491369	82.143221	84.103449	-15.161845	14.387954	27.519856	-25.309268	10.366741	92.195224	85.936694	-10.567185	12.822718
2.310345	2.530631	-2.663081	95.438997	0.133384	0.641746	0.817887	4.899853	-1.529064	-3.510055	4.981723	0.086947	21.230436	5.337449	0.000000	5.388868	2.283189	7.842337	3.646739	0.063648	16.708024	-12.763591	0.000000	0.137259	0.060136	0.093131	0.254905	0.079981	0.098952	0.225504	0.146215	0.098952	0.156874	0.146215	0.081490	0.127459	0.122630	0.075669	0.078430	0.093151	0.069849	0.980431	0.680272	0.517969	0.000000	0.000000	13.450219	0.073320	8.640828	22.989923	-19.115499	-12.990051	82.002795	84.027339	-14.845274	15.286909	29.114893	-23.658231	16.547101	94.850482	84.576077	-10.018413	13.380007
2.327586	2.800917	-2.620172	95.703623	0.132536	0.641925	0.818259	4.773195	-1.274332	-3.551282	4.743768	0.082794	21.107751	5.312589	0.000000	5.443042	2.048726	8.025468	3.731879	0.065134	16.762722	-12.619663	0.000000	0.132511	0.085885	0.065265	0.246087	0.114227	0.069344	0.217703	0.208821	0.069344	0.151447	0.208821	0.057107	0.123050	0.175137	0.053028	0.075717	0.133036	0.048949	0.946516	0.971550	0.362984	0.000000	0.000000	13.191259	0.219750	9.079196	23.148069	-19.398960	-18.659831	81.731520	84.142330	-14.627927	15.715449	30.656719	-21.971878	22.535116	97.486267	82.988711	-9.223389	14.518916
